<svg width="22" height="23" viewBox="0 0 22 23" fill="none" xmlns="http://www.w3.org/2000/svg">
<path d="M8.25033 15.9832V16.8999C8.25033 17.6292 8.54006 18.3287 9.05578 18.8444C9.57151 19.3602 10.271 19.6499 11.0003 19.6499C11.7297 19.6499 12.4291 19.3602 12.9449 18.8444C13.4606 18.3287 13.7503 17.6292 13.7503 16.8999V15.9832M9.16699 4.98324C9.16699 4.49701 9.36015 4.03069 9.70396 3.68687C10.0478 3.34306 10.5141 3.1499 11.0003 3.1499C11.4866 3.1499 11.9529 3.34306 12.2967 3.68687C12.6405 4.03069 12.8337 4.49701 12.8337 4.98324C13.8864 5.48101 14.7838 6.25587 15.4297 7.22476C16.0756 8.19365 16.4457 9.32005 16.5003 10.4832V13.2332C16.5693 13.8031 16.7711 14.3489 17.0896 14.8265C17.408 15.3042 17.8341 15.7004 18.3337 15.9832H3.66699C4.16652 15.7004 4.59265 15.3042 4.91108 14.8265C5.22951 14.3489 5.43134 13.8031 5.50033 13.2332V10.4832C5.55492 9.32005 5.92502 8.19365 6.57095 7.22476C7.21687 6.25587 8.11428 5.48101 9.16699 4.98324Z" stroke="#F6F6F6" stroke-width="2" stroke-linecap="round" stroke-linejoin="round"/>
</svg>
