<svg width="84" height="84" viewBox="0 0 84 84" fill="none" xmlns="http://www.w3.org/2000/svg">
<path d="M0 32C0 14.3269 14.3269 0 32 0H52C69.6731 0 84 14.3269 84 32V52C84 69.6731 69.6731 84 52 84H32C14.3269 84 0 69.6731 0 52V32Z" fill="#2A3FA7"/>
<path d="M51.7778 20C52.2251 20 52.6456 20.11 53.0049 20.297L53.0856 20.341C53.77 20.7304 54.2222 21.419 54.2222 22.2V24.4H56.6667C58.5372 24.3999 60.337 25.0431 61.698 26.198C63.0589 27.3529 63.878 28.9322 63.9878 30.6128L64 31V57.4C64.0001 59.0835 63.2854 60.7033 62.0022 61.9282C60.719 63.153 58.9642 63.8902 57.0969 63.989L56.6667 64H27.3333C25.4628 64.0001 23.663 63.3569 22.302 62.202C20.9411 61.0471 20.122 59.4678 20.0122 57.7872L20 57.4V31C19.9999 29.3165 20.7146 27.6967 21.9978 26.4718C23.281 25.247 25.0358 24.5098 26.9031 24.411L27.3333 24.4H29.7778V22.2C29.7778 21.8078 29.8942 21.4227 30.1151 21.0847C30.3361 20.7466 30.6534 20.4678 31.0342 20.2772L31.2616 20.176L31.4229 20.121L31.6673 20.0572L31.9289 20.0154L32.2222 20C32.3575 20 32.4887 20.0095 32.6158 20.0286L32.914 20.0924L33.0118 20.1188L33.1584 20.1694C33.9602 20.4664 34.5469 21.1374 34.6496 21.9426L34.6667 22.2V24.4H49.3333V22.2C49.3333 21.6165 49.5909 21.0569 50.0493 20.6444C50.5077 20.2318 51.1295 20 51.7778 20ZM59.1111 35.4H24.8889V56.575C24.8889 58.126 25.8324 59.4042 27.0473 59.5802L27.3333 59.6H56.6667C57.9207 59.6 58.9547 58.434 59.094 56.927L59.1111 56.575V35.4Z" fill="#F6F6F6"/>
<path d="M34.7034 44.2C34.7034 44.7835 34.4459 45.3431 33.9874 45.7556C33.529 46.1682 32.9073 46.4 32.259 46.4C31.9288 46.414 31.5989 46.3677 31.2892 46.2638C30.9795 46.1599 30.6964 46.0007 30.4569 45.7956C30.2175 45.5905 30.0267 45.3439 29.896 45.0707C29.7654 44.7975 29.6976 44.5032 29.6968 44.2058C29.696 43.9083 29.7621 43.6137 29.8912 43.3399C30.0204 43.0661 30.2098 42.8186 30.4481 42.6125C30.6864 42.4064 30.9686 42.2458 31.2777 42.1406C31.5869 42.0353 31.9165 41.9875 32.2467 42C33.6083 42 34.7034 42.9856 34.7034 44.2ZM44.4812 44.2C44.4812 44.7835 44.2236 45.3431 43.7652 45.7556C43.3068 46.1682 42.685 46.4 42.0367 46.4C41.7066 46.414 41.3767 46.3677 41.067 46.2638C40.7573 46.1599 40.4741 46.0007 40.2347 45.7956C39.9953 45.5905 39.8045 45.3439 39.6738 45.0707C39.5432 44.7975 39.4754 44.5032 39.4746 44.2058C39.4737 43.9083 39.5399 43.6137 39.669 43.3399C39.7981 43.0661 39.9876 42.8186 40.2259 42.6125C40.4642 42.4064 40.7464 42.2458 41.0555 42.1406C41.3647 42.0353 41.6943 41.9875 42.0245 42C43.3861 42 44.4812 42.9856 44.4812 44.2ZM54.2712 44.2C54.2712 44.7835 54.0136 45.3431 53.5552 45.7556C53.0968 46.1682 52.475 46.4 51.8267 46.4C51.4966 46.414 51.1667 46.3677 50.857 46.2638C50.5473 46.1599 50.2641 46.0007 50.0247 45.7956C49.7853 45.5905 49.5945 45.3439 49.4638 45.0707C49.3332 44.7975 49.2654 44.5032 49.2646 44.2058C49.2637 43.9083 49.3299 43.6137 49.459 43.3399C49.5881 43.0661 49.7776 42.8186 50.0159 42.6125C50.2542 42.4064 50.5364 42.2458 50.8455 42.1406C51.1547 42.0353 51.4843 41.9875 51.8145 42C53.1761 42 54.2712 42.9856 54.2712 44.2ZM42.049 48.6C42.6973 48.6 43.319 48.8318 43.7774 49.2444C44.2359 49.6569 44.4934 50.2165 44.4934 50.8C44.4934 51.3835 44.2359 51.9431 43.7774 52.3556C43.319 52.7682 42.6973 53 42.049 53C41.7188 53.014 41.3889 52.9677 41.0792 52.8638C40.7695 52.7599 40.4864 52.6007 40.2469 52.3956C40.0075 52.1905 39.8167 51.9439 39.686 51.6707C39.5554 51.3975 39.4876 51.1032 39.4868 50.8058C39.486 50.5083 39.5521 50.2137 39.6812 49.9399C39.8104 49.6661 39.9998 49.4186 40.2381 49.2125C40.4764 49.0064 40.7586 48.8458 41.0677 48.7406C41.3769 48.6353 41.7065 48.5875 42.0367 48.6H42.049ZM34.7034 50.8C34.7034 51.3835 34.4459 51.9431 33.9874 52.3556C33.529 52.7682 32.9073 53 32.259 53C31.9288 53.014 31.5989 52.9677 31.2892 52.8638C30.9795 52.7599 30.6964 52.6007 30.4569 52.3956C30.2175 52.1905 30.0267 51.9439 29.896 51.6707C29.7654 51.3975 29.6976 51.1032 29.6968 50.8058C29.696 50.5083 29.7621 50.2137 29.8912 49.9399C30.0204 49.6661 30.2098 49.4186 30.4481 49.2125C30.6864 49.0064 30.9686 48.8458 31.2777 48.7406C31.5869 48.6353 31.9165 48.5875 32.2467 48.6C33.6083 48.6 34.7034 49.5856 34.7034 50.8Z" fill="#F6F6F6"/>
</svg>
