<svg width="22" height="16" viewBox="0 0 22 16" fill="none" xmlns="http://www.w3.org/2000/svg">
<path d="M21.0287 3.1875C20.8156 3.16289 20.5999 3.20112 20.4083 3.2975L15.4 5.8V10.2L20.4083 12.7025C20.5758 12.7862 20.7619 12.8258 20.9489 12.8174C21.136 12.8091 21.3178 12.7532 21.4772 12.6549C21.6366 12.5566 21.7683 12.4193 21.8598 12.2559C21.9513 12.0926 21.9995 11.9085 22 11.7213V4.2787C21.9997 4.00946 21.9007 3.74969 21.7216 3.54858C21.5426 3.34747 21.2961 3.219 21.0287 3.1875Z" fill="#1E1E22"/>
<path d="M3.3 0.299988C1.4905 0.299988 0 1.79049 0 3.59999V12.4C0 14.2095 1.4905 15.7 3.3 15.7H12.1C13.9095 15.7 15.4 14.2095 15.4 12.4V3.59999C15.4 1.79049 13.9095 0.299988 12.1 0.299988H3.3Z" fill="#1E1E22"/>
</svg>
