<svg width="22" height="22" viewBox="0 0 22 22" fill="none" xmlns="http://www.w3.org/2000/svg">
<path d="M2.75 2.75L19.25 19.25M13.75 10.0833V9.16667L17.9236 7.08033C18.0633 7.01052 18.2185 6.97756 18.3746 6.98458C18.5306 6.99161 18.6823 7.03839 18.8151 7.12049C18.948 7.20258 19.0577 7.31727 19.1338 7.45367C19.2099 7.59006 19.2499 7.74364 19.25 7.89983V14.1002C19.2501 14.2912 19.1905 14.4774 19.0795 14.6329C18.9686 14.7883 18.8119 14.9053 18.6313 14.9673" stroke="white" stroke-width="2" stroke-linecap="round" stroke-linejoin="round"/>
<path d="M9.16667 5.5H11.9167C12.4029 5.5 12.8692 5.69315 13.213 6.03697C13.5568 6.38079 13.75 6.8471 13.75 7.33333V10.0833M13.75 13.75V14.6667C13.75 15.1529 13.5568 15.6192 13.213 15.963C12.8692 16.3068 12.4029 16.5 11.9167 16.5H4.58333C4.0971 16.5 3.63079 16.3068 3.28697 15.963C2.94315 15.6192 2.75 15.1529 2.75 14.6667V7.33333C2.75 6.8471 2.94315 6.38079 3.28697 6.03697C3.63079 5.69315 4.0971 5.5 4.58333 5.5H5.5" stroke="white" stroke-width="2" stroke-linecap="round" stroke-linejoin="round"/>
</svg>
