<svg width="30" height="30" viewBox="0 0 30 30" fill="none" xmlns="http://www.w3.org/2000/svg">
<path d="M3.75 3.75L26.25 26.25M18.75 13.75V12.5L24.4412 9.655C24.6318 9.55979 24.8435 9.51485 25.0562 9.52443C25.269 9.53402 25.4758 9.59781 25.657 9.70976C25.8382 9.82171 25.9878 9.9781 26.0916 10.1641C26.1954 10.3501 26.2499 10.5595 26.25 10.7725V19.2275C26.2501 19.4879 26.1688 19.7419 26.0175 19.9539C25.8663 20.1659 25.6526 20.3254 25.4063 20.41" stroke="#F6F6F6" stroke-width="2" stroke-linecap="round" stroke-linejoin="round"/>
<path d="M12.5 7.5H16.25C16.913 7.5 17.5489 7.76339 18.0178 8.23223C18.4866 8.70107 18.75 9.33696 18.75 10V13.75M18.75 18.75V20C18.75 20.663 18.4866 21.2989 18.0178 21.7678C17.5489 22.2366 16.913 22.5 16.25 22.5H6.25C5.58696 22.5 4.95107 22.2366 4.48223 21.7678C4.01339 21.2989 3.75 20.663 3.75 20V10C3.75 9.33696 4.01339 8.70107 4.48223 8.23223C4.95107 7.76339 5.58696 7.5 6.25 7.5H7.5" stroke="#F6F6F6" stroke-width="2" stroke-linecap="round" stroke-linejoin="round"/>
</svg>
