<svg width="84" height="84" viewBox="0 0 84 84" fill="none" xmlns="http://www.w3.org/2000/svg">
<path d="M0 32C0 14.3269 14.3269 0 32 0H52C69.6731 0 84 14.3269 84 32V52C84 69.6731 69.6731 84 52 84H32C14.3269 84 0 69.6731 0 52V32Z" fill="#FF9500"/>
<path d="M62.0575 32.3749C61.6312 32.3257 61.1999 32.4021 60.8166 32.5949L50.8 37.5999V46.3999L60.8166 51.4049C61.1516 51.5723 61.5238 51.6514 61.8979 51.6347C62.2721 51.6181 62.6357 51.5062 62.9545 51.3097C63.2733 51.1132 63.5366 50.8385 63.7196 50.5118C63.9026 50.185 63.9991 49.817 64 49.4425V34.5573C63.9994 34.0188 63.8014 33.4993 63.4433 33.097C63.0853 32.6948 62.5922 32.4379 62.0575 32.3749Z" fill="#F6F6F6"/>
<path d="M26.6 26.6001C22.981 26.6001 20 29.5811 20 33.2001V50.8001C20 54.4191 22.981 57.4001 26.6 57.4001H44.2C47.819 57.4001 50.8 54.4191 50.8 50.8001V33.2001C50.8 29.5811 47.819 26.6001 44.2 26.6001H26.6Z" fill="#F6F6F6"/>
</svg>
