<svg width="20" height="19" viewBox="0 0 20 19" fill="none" xmlns="http://www.w3.org/2000/svg">
<path d="M1.75 17.75V15.9167C1.75 14.9442 2.13631 14.0116 2.82394 13.3239C3.51158 12.6363 4.44421 12.25 5.41667 12.25H9.08333C10.0558 12.25 10.9884 12.6363 11.6761 13.3239C12.3637 14.0116 12.75 14.9442 12.75 15.9167V17.75M13.6667 1.36917C14.4554 1.57111 15.1545 2.02981 15.6537 2.67295C16.1529 3.31609 16.4239 4.10709 16.4239 4.92125C16.4239 5.73541 16.1529 6.52641 15.6537 7.16955C15.1545 7.81269 14.4554 8.27139 13.6667 8.47333M18.25 17.75V15.9167C18.2453 15.1074 17.9731 14.3224 17.4757 13.684C16.9782 13.0457 16.2836 12.5898 15.5 12.3875M3.58333 4.91667C3.58333 5.88913 3.96964 6.82176 4.65727 7.50939C5.34491 8.19703 6.27754 8.58333 7.25 8.58333C8.22246 8.58333 9.15509 8.19703 9.84272 7.50939C10.5304 6.82176 10.9167 5.88913 10.9167 4.91667C10.9167 3.94421 10.5304 3.01158 9.84272 2.32394C9.15509 1.63631 8.22246 1.25 7.25 1.25C6.27754 1.25 5.34491 1.63631 4.65727 2.32394C3.96964 3.01158 3.58333 3.94421 3.58333 4.91667Z" stroke="#1E1E22" stroke-width="2" stroke-linecap="round" stroke-linejoin="round"/>
</svg>
