<svg width="22" height="22" viewBox="0 0 22 22" fill="none" xmlns="http://www.w3.org/2000/svg">
<path d="M7.28881 14.7143L14.7139 7.28915M9.76384 3.57661L10.3368 2.9133C11.4974 1.75291 13.0713 1.10108 14.7125 1.1012C16.3536 1.10131 17.9275 1.75337 19.0879 2.91392C20.2483 4.07447 20.9001 5.64844 20.9 7.28959C20.8999 8.93074 20.2478 10.5046 19.0873 11.665L18.4265 12.2392M12.2389 18.4268L11.7476 19.0876C10.5732 20.2481 8.9887 20.8988 7.33769 20.8988C5.68668 20.8988 4.10221 20.2481 2.9278 19.0876C2.34879 18.5156 1.88908 17.8343 1.57532 17.0832C1.26157 16.3322 1.10001 15.5263 1.10001 14.7124C1.10001 13.8984 1.26157 13.0926 1.57532 12.3416C1.88908 11.5905 2.34879 10.9092 2.9278 10.3372L3.57626 9.76419" stroke="#1E1E22" stroke-width="2" stroke-linecap="round" stroke-linejoin="round"/>
</svg>
