<svg width="84" height="84" viewBox="0 0 84 84" fill="none" xmlns="http://www.w3.org/2000/svg">
<path d="M0 32C0 14.3269 14.3269 0 32 0H52C69.6731 0 84 14.3269 84 32V52C84 69.6731 69.6731 84 52 84H32C14.3269 84 0 69.6731 0 52V32Z" fill="#2A3FA7"/>
<path d="M34.5778 49.4283L49.428 34.5781M39.5279 27.153L40.6738 25.8264C42.9949 23.5056 46.1429 22.2019 49.4252 22.2021C52.7074 22.2024 55.8552 23.5065 58.176 25.8276C60.4968 28.1487 61.8004 31.2966 61.8002 34.5789C61.8 37.8612 60.4959 41.009 58.1748 43.3298L56.8531 44.4782M44.4779 56.8534L43.4953 58.175C41.1465 60.4959 37.9776 61.7974 34.6756 61.7974C31.3735 61.7974 28.2046 60.4959 25.8558 58.175C24.6978 57.0309 23.7783 55.6683 23.1508 54.1662C22.5233 52.6641 22.2002 51.0524 22.2002 49.4245C22.2002 47.7967 22.5233 46.1849 23.1508 44.6829C23.7783 43.1808 24.6978 41.8182 25.8558 40.6741L27.1527 39.5281" stroke="#F6F6F6" stroke-width="4" stroke-linecap="round" stroke-linejoin="round"/>
</svg>
