<svg width="24" height="20" viewBox="0 0 24 20" fill="none" xmlns="http://www.w3.org/2000/svg">
<path d="M8.76471 5.60001V3.40001C8.76471 2.81654 9.0374 2.25696 9.52279 1.84438C10.0082 1.4318 10.6665 1.20001 11.3529 1.20001H20.4118C21.0982 1.20001 21.7565 1.4318 22.2419 1.84438C22.7273 2.25696 23 2.81654 23 3.40001V16.6C23 17.1835 22.7273 17.7431 22.2419 18.1556C21.7565 18.5682 21.0982 18.8 20.4118 18.8H11.3529C10.6665 18.8 10.0082 18.5682 9.52279 18.1556C9.0374 17.7431 8.76471 17.1835 8.76471 16.6V14.4" stroke="#1E1E22" stroke-width="2" stroke-linecap="round" stroke-linejoin="round"/>
<path d="M1 10H17.8235M17.8235 10L13.9412 6.70001M17.8235 10L13.9412 13.3" stroke="#1E1E22" stroke-width="2" stroke-linecap="round" stroke-linejoin="round"/>
</svg>
