<svg width="24" height="20" viewBox="0 0 24 20" fill="none" xmlns="http://www.w3.org/2000/svg">
<path d="M9.55554 5.60001V3.40001C9.55554 2.81654 9.81308 2.25696 10.2715 1.84438C10.7299 1.4318 11.3517 1.20001 12 1.20001H20.5555C21.2038 1.20001 21.8256 1.4318 22.284 1.84438C22.7424 2.25696 23 2.81654 23 3.40001V16.6C23 17.1835 22.7424 17.7431 22.284 18.1556C21.8256 18.5682 21.2038 18.8 20.5555 18.8H12C11.3517 18.8 10.7299 18.5682 10.2715 18.1556C9.81308 17.7431 9.55554 17.1835 9.55554 16.6V14.4" stroke="#1E1E22" stroke-width="2" stroke-linecap="round" stroke-linejoin="round"/>
<path d="M15.6667 10H1M1 10L4.66667 6.70001M1 10L4.66667 13.3" stroke="#1E1E22" stroke-width="2" stroke-linecap="round" stroke-linejoin="round"/>
</svg>
