<svg width="20" height="26" viewBox="0 0 20 26" fill="none" xmlns="http://www.w3.org/2000/svg">
<path d="M6 4.75C6 3.75544 6.39509 2.80161 7.09835 2.09835C7.80161 1.39509 8.75544 1 9.75 1C10.7446 1 11.6984 1.39509 12.4017 2.09835C13.1049 2.80161 13.5 3.75544 13.5 4.75V11C13.5 11.9946 13.1049 12.9484 12.4017 13.6517C11.6984 14.3549 10.7446 14.75 9.75 14.75C8.75544 14.75 7.80161 14.3549 7.09835 13.6517C6.39509 12.9484 6 11.9946 6 11V4.75Z" stroke="#F6F6F6" stroke-width="2" stroke-linecap="round" stroke-linejoin="round"/>
<path d="M1 11C1 13.3206 1.92187 15.5462 3.56282 17.1872C5.20376 18.8281 7.42936 19.75 9.75 19.75M9.75 19.75C12.0706 19.75 14.2962 18.8281 15.9372 17.1872C17.5781 15.5462 18.5 13.3206 18.5 11M9.75 19.75V24.75M4.75 24.75H14.75" stroke="#F6F6F6" stroke-width="2" stroke-linecap="round" stroke-linejoin="round"/>
</svg>
