<svg width="22" height="22" viewBox="0 0 22 22" fill="none" xmlns="http://www.w3.org/2000/svg">
<path d="M2.75 2.75004L19.25 19.25M8.25 4.58337C8.25 3.85403 8.53973 3.15456 9.05546 2.63883C9.57118 2.12311 10.2707 1.83337 11 1.83337C11.7293 1.83337 12.4288 2.12311 12.9445 2.63883C13.4603 3.15456 13.75 3.85403 13.75 4.58337V9.16671C13.75 9.43818 13.7099 9.70816 13.6308 9.96787M11.7975 11.8012C11.3865 11.9257 10.9521 11.9523 10.529 11.8788C10.106 11.8052 9.706 11.6336 9.36116 11.3777C9.01632 11.1218 8.73621 10.7887 8.54326 10.4051C8.3503 10.0214 8.24987 9.59796 8.25 9.16854V8.25187" stroke="white" stroke-width="2" stroke-linecap="round" stroke-linejoin="round"/>
<path d="M4.58301 9.16675C4.58281 10.3248 4.89602 11.4613 5.48942 12.4558C6.08282 13.4503 6.9343 14.2657 7.95356 14.8154C8.97282 15.3652 10.1219 15.6288 11.2788 15.5785C12.4358 15.5281 13.5576 15.1655 14.5252 14.5292M16.3585 12.6959C17.0494 11.6487 17.4166 10.4213 17.4145 9.16675M7.33301 19.2501H14.6663M10.9997 15.5834V19.2501" stroke="white" stroke-width="2" stroke-linecap="round" stroke-linejoin="round"/>
</svg>
