<svg width="22" height="22" viewBox="0 0 22 22" fill="none" xmlns="http://www.w3.org/2000/svg">
<path d="M8.25 4.58337C8.25 3.85403 8.53973 3.15456 9.05546 2.63883C9.57118 2.12311 10.2707 1.83337 11 1.83337C11.7293 1.83337 12.4288 2.12311 12.9445 2.63883C13.4603 3.15456 13.75 3.85403 13.75 4.58337V9.16671C13.75 9.89605 13.4603 10.5955 12.9445 11.1113C12.4288 11.627 11.7293 11.9167 11 11.9167C10.2707 11.9167 9.57118 11.627 9.05546 11.1113C8.53973 10.5955 8.25 9.89605 8.25 9.16671V4.58337Z" stroke="white" stroke-width="2" stroke-linecap="round" stroke-linejoin="round"/>
<path d="M4.58301 9.16675C4.58301 10.8686 5.25905 12.5007 6.46241 13.704C7.66576 14.9074 9.29787 15.5834 10.9997 15.5834M10.9997 15.5834C12.7015 15.5834 14.3336 14.9074 15.5369 13.704C16.7403 12.5007 17.4163 10.8686 17.4163 9.16675M10.9997 15.5834V19.2501M7.33301 19.2501H14.6663" stroke="white" stroke-width="2" stroke-linecap="round" stroke-linejoin="round"/>
</svg>
