<svg width="22" height="23" viewBox="0 0 22 23" fill="none" xmlns="http://www.w3.org/2000/svg">
<path d="M4.58333 17.5168H6.41667C6.67639 17.5168 6.89425 17.6048 7.07025 17.7808C7.24625 17.9568 7.33394 18.1743 7.33333 18.4334C7.33272 18.6925 7.24472 18.9104 7.06933 19.087C6.89394 19.2636 6.67639 19.3513 6.41667 19.3501H3.66667C3.40694 19.3501 3.18939 19.2621 3.014 19.0861C2.83861 18.9101 2.75061 18.6925 2.75 18.4334V15.6834C2.75 15.4237 2.838 15.2062 3.014 15.0308C3.19 14.8554 3.40756 14.7674 3.66667 14.7668C3.92578 14.7662 4.14364 14.8542 4.32025 15.0308C4.49686 15.2074 4.58456 15.4249 4.58333 15.6834V17.5168ZM17.4167 17.5168V15.6834C17.4167 15.4237 17.5047 15.2062 17.6807 15.0308C17.8567 14.8554 18.0742 14.7674 18.3333 14.7668C18.5924 14.7662 18.8103 14.8542 18.9869 15.0308C19.1635 15.2074 19.2512 15.4249 19.25 15.6834V18.4334C19.25 18.6932 19.162 18.911 18.986 19.087C18.81 19.263 18.5924 19.3507 18.3333 19.3501H15.5833C15.3236 19.3501 15.1061 19.2621 14.9307 19.0861C14.7553 18.9101 14.6673 18.6925 14.6667 18.4334C14.6661 18.1743 14.7541 17.9568 14.9307 17.7808C15.1073 17.6048 15.3248 17.5168 15.5833 17.5168H17.4167ZM4.58333 4.68343V6.51676C4.58333 6.77649 4.49533 6.99435 4.31933 7.17035C4.14333 7.34635 3.92578 7.43404 3.66667 7.43343C3.40756 7.43282 3.19 7.34482 3.014 7.16943C2.838 6.99404 2.75 6.77649 2.75 6.51676V3.76676C2.75 3.50704 2.838 3.28949 3.014 3.1141C3.19 2.93871 3.40756 2.85071 3.66667 2.8501H6.41667C6.67639 2.8501 6.89425 2.9381 7.07025 3.1141C7.24625 3.2901 7.33394 3.50765 7.33333 3.76676C7.33272 4.02588 7.24472 4.24374 7.06933 4.42035C6.89394 4.59696 6.67639 4.68465 6.41667 4.68343H4.58333ZM17.4167 4.68343H15.5833C15.3236 4.68343 15.1061 4.59543 14.9307 4.41943C14.7553 4.24343 14.6673 4.02588 14.6667 3.76676C14.6661 3.50765 14.7541 3.2901 14.9307 3.1141C15.1073 2.9381 15.3248 2.8501 15.5833 2.8501H18.3333C18.5931 2.8501 18.8109 2.9381 18.9869 3.1141C19.1629 3.2901 19.2506 3.50765 19.25 3.76676V6.51676C19.25 6.77649 19.162 6.99435 18.986 7.17035C18.81 7.34635 18.5924 7.43404 18.3333 7.43343C18.0742 7.43282 17.8567 7.34482 17.6807 7.16943C17.5047 6.99404 17.4167 6.77649 17.4167 6.51676V4.68343Z" fill="white"/>
</svg>
