<svg width="22" height="22" viewBox="0 0 22 22" fill="none" xmlns="http://www.w3.org/2000/svg">
<path d="M2.75 19.25L19.25 2.75M5.34508 12.9809C3.80842 10.7734 2.91046 8.18487 2.75 5.5C2.75 5.01377 2.94315 4.54745 3.28697 4.20364C3.63079 3.85982 4.0971 3.66667 4.58333 3.66667H8.25L10.0833 8.25L7.79167 9.625C7.89067 9.82667 7.99608 10.0238 8.10792 10.2163M9.713 12.3035C10.4907 13.0792 11.3898 13.7226 12.375 14.2083L13.75 11.9167L18.3333 13.75V17.4167C18.3333 17.9029 18.1402 18.3692 17.7964 18.713C17.4525 19.0568 16.9862 19.25 16.5 19.25C12.9232 19.0362 9.54925 17.5172 7.018 14.9811" stroke="white" stroke-width="2" stroke-linecap="round" stroke-linejoin="round"/>
</svg>
