<svg width="30" height="30" viewBox="0 0 30 30" fill="none" xmlns="http://www.w3.org/2000/svg">
<path d="M3.75 26.25L26.25 3.75M7.28875 17.7013C5.19331 14.6911 3.96881 11.1612 3.75 7.5C3.75 6.83696 4.01339 6.20107 4.48223 5.73223C4.95107 5.26339 5.58696 5 6.25 5H11.25L13.75 11.25L10.625 13.125C10.76 13.4 10.9038 13.6688 11.0563 13.9313M13.245 16.7775C14.3054 17.8353 15.5316 18.7127 16.875 19.375L18.75 16.25L25 18.75V23.75C25 24.413 24.7366 25.0489 24.2678 25.5178C23.7989 25.9866 23.163 26.25 22.5 26.25C17.6226 25.9585 13.0217 23.8871 9.57 20.4288" stroke="#F6F6F6" stroke-width="2" stroke-linecap="round" stroke-linejoin="round"/>
</svg>
