<svg width="30" height="30" viewBox="0 0 30 30" fill="none" xmlns="http://www.w3.org/2000/svg">
<path d="M26.2493 15L5.8718 5.04251C5.75556 4.9973 5.62845 4.9879 5.50682 5.01552C5.3852 5.04314 5.27461 5.10652 5.1893 5.19751C5.10181 5.29085 5.04156 5.40638 5.01512 5.53156C4.98867 5.65673 4.99704 5.78676 5.0393 5.90751L8.1243 15M26.2493 15L5.8718 24.9575C5.75556 25.0027 5.62845 25.0121 5.50682 24.9845C5.3852 24.9569 5.27461 24.8935 5.1893 24.8025C5.10181 24.7092 5.04156 24.5936 5.01512 24.4685C4.98867 24.3433 4.99704 24.2133 5.0393 24.0925L8.1243 15M26.2493 15H8.1243" stroke="#F6F6F6" stroke-width="2" stroke-linecap="round" stroke-linejoin="round"/>
</svg>
