<svg width="15" height="15" viewBox="0 0 15 15" fill="none" xmlns="http://www.w3.org/2000/svg">
<path d="M9.375 5.00014C9.76311 5.29122 10.0781 5.66867 10.2951 6.10259C10.512 6.53652 10.625 7.01499 10.625 7.50014C10.625 7.98528 10.512 8.46375 10.2951 8.89768C10.0781 9.3316 9.76311 9.70905 9.375 10.0001M11.0625 3.12514C11.715 3.65242 12.2413 4.31896 12.6028 5.07596C12.9643 5.83296 13.152 6.66124 13.152 7.50014C13.152 8.33904 12.9643 9.16731 12.6028 9.92431C12.2413 10.6813 11.715 11.3479 11.0625 11.8751M3.75 9.37514H2.5C2.33424 9.37514 2.17527 9.30929 2.05806 9.19208C1.94085 9.07487 1.875 8.9159 1.875 8.75014V6.25014C1.875 6.08438 1.94085 5.9254 2.05806 5.80819C2.17527 5.69098 2.33424 5.62514 2.5 5.62514H3.75L5.9375 2.81264C5.99213 2.70653 6.08291 2.62346 6.19343 2.57844C6.30396 2.53342 6.42694 2.52942 6.54016 2.56716C6.65338 2.6049 6.74936 2.68189 6.81077 2.78422C6.87218 2.88655 6.89496 3.00747 6.875 3.12514V11.8751C6.89496 11.9928 6.87218 12.1137 6.81077 12.216C6.74936 12.3184 6.65338 12.3954 6.54016 12.4331C6.42694 12.4708 6.30396 12.4668 6.19343 12.4218C6.08291 12.3768 5.99213 12.2937 5.9375 12.1876L3.75 9.37514Z" stroke="#E7E7E9" stroke-width="1.5" stroke-linecap="round" stroke-linejoin="round"/>
</svg>
