<svg width="22" height="22" viewBox="0 0 22 22" fill="none" xmlns="http://www.w3.org/2000/svg">
<path d="M13.75 7.33333C14.436 7.8478 14.9639 8.54438 15.2737 9.34389C15.5835 10.1434 15.6628 11.0138 15.5027 11.8562M14.2404 14.2413C14.0872 14.3945 13.9233 14.5367 13.75 14.6667M16.225 4.58333C17.6962 5.77229 18.7142 7.4307 19.1083 9.28075C19.5025 11.1308 19.249 13.0601 18.3902 14.7455M16.8538 16.8529C16.654 17.0514 16.4441 17.2396 16.225 17.4167M8.31325 4.63283L8.70833 4.125C8.78845 3.96938 8.92159 3.84755 9.0837 3.78152C9.2458 3.71549 9.42618 3.70962 9.59223 3.76497C9.75828 3.82032 9.89906 3.93324 9.98913 4.08333C10.0792 4.23341 10.1126 4.41076 10.0833 4.58333V6.41667M10.0833 10.0833V17.4167C10.1126 17.5892 10.0792 17.7666 9.98913 17.9167C9.89906 18.0668 9.75828 18.1797 9.59223 18.235C9.42618 18.2904 9.2458 18.2845 9.0837 18.2185C8.92159 18.1525 8.78845 18.0306 8.70833 17.875L5.5 13.75H3.66667C3.42355 13.75 3.19039 13.6534 3.01849 13.4815C2.84658 13.3096 2.75 13.0764 2.75 12.8333V9.16667C2.75 8.92355 2.84658 8.69039 3.01849 8.51849C3.19039 8.34658 3.42355 8.25 3.66667 8.25H5.5L6.68617 6.72467M2.75 2.75L19.25 19.25" stroke="white" stroke-width="2" stroke-linecap="round" stroke-linejoin="round"/>
</svg>
