<svg width="1440" height="1024" viewBox="0 0 1440 1024" fill="none" xmlns="http://www.w3.org/2000/svg" xmlns:xlink="http://www.w3.org/1999/xlink">
<rect width="1440" height="1024" fill="#1E1E22"/>
<rect width="1440" height="1024" fill="url(#pattern0_830_6976)" fill-opacity="0.5"/>
<defs>
<pattern id="pattern0_830_6976" patternUnits="userSpaceOnUse" patternTransform="matrix(170.25 0 0 224.75 -4.25 0)" preserveAspectRatio="none" viewBox="-17 0 681 899" width="1" height="1">
<use xlink:href="#pattern0_830_6976_inner" transform="translate(-681 -899)"/>
<use xlink:href="#pattern0_830_6976_inner" transform="translate(0 -899)"/>
<use xlink:href="#pattern0_830_6976_inner" transform="translate(-681 0)"/>
<g id="pattern0_830_6976_inner">
<path d="M0 1.99999C0 0.895421 0.895431 0 2 0H679C680.105 0 681 0.89543 681 2V897C681 898.105 680.105 899 679 899H1.99999C0.895419 899 0 898.105 0 897V1.99999Z" fill="#1E1E22"/>
<path d="M30.4662 92.0263L71.3226 131.143L51.1142 139.752L30.3707 148.589L30.4662 92.0263Z" fill="#474A58"/>
<path d="M99.1512 214.94C125.262 203.817 137.412 173.632 126.288 147.521C115.164 121.41 84.9796 109.26 58.8687 120.384L-2.4124 146.491L37.8701 241.047L99.1512 214.94Z" fill="#23252F"/>
<circle cx="17" cy="17" r="17" transform="matrix(-0.391932 -0.919994 -0.919994 0.391932 95.7959 166.37)" fill="#474A58"/>
<ellipse cx="3.5" cy="3.5" rx="3.5" ry="3.5" transform="matrix(-0.391932 -0.919994 -0.919994 0.391932 74.3535 152.678)" fill="#373840"/>
<path d="M254.464 175.809L304.181 148.835L286.954 135.207L269.27 121.218L254.464 175.809Z" fill="#474A58"/>
<path d="M353.098 75.326C375.357 92.9343 379.127 125.253 361.519 147.512C343.911 169.771 311.592 173.542 289.333 155.933L237.092 114.607L300.857 34L353.098 75.326Z" fill="#23252F"/>
<circle cx="313.188" cy="124.083" r="17" transform="rotate(128.346 313.188 124.083)" fill="#474A58"/>
<ellipse cx="307.86" cy="129.432" rx="3.5" ry="3.5" transform="rotate(128.346 307.86 129.432)" fill="#373840"/>
<path d="M497.036 214.508L464.78 260.973L453.12 242.357L441.152 223.248L497.036 214.508Z" fill="#474A58"/>
<path d="M386.357 301.547C401.422 325.6 433.134 332.887 457.188 317.821C481.241 302.756 488.527 271.044 473.462 246.991L438.105 190.539L351 245.095L386.357 301.547Z" fill="#23252F"/>
<circle cx="17" cy="17" r="17" transform="matrix(0.847493 -0.530807 -0.530807 -0.847493 433.809 290.647)" fill="#474A58"/>
<ellipse cx="3.5" cy="3.5" rx="3.5" ry="3.5" transform="matrix(0.847493 -0.530807 -0.530807 -0.847493 443.983 267.33)" fill="#373840"/>
<path d="M592.036 551.726L559.78 598.19L548.12 579.575L536.152 560.466L592.036 551.726Z" fill="#474A58"/>
<path d="M481.357 638.765C496.422 662.818 528.134 670.104 552.188 655.039C576.241 639.974 583.527 608.262 568.462 584.209L533.105 527.757L446 582.313L481.357 638.765Z" fill="#23252F"/>
<circle cx="17" cy="17" r="17" transform="matrix(0.847493 -0.530807 -0.530807 -0.847493 528.809 627.865)" fill="#474A58"/>
<ellipse cx="3.5" cy="3.5" rx="3.5" ry="3.5" transform="matrix(0.847493 -0.530807 -0.530807 -0.847493 538.983 604.547)" fill="#373840"/>
<path d="M499.279 888.357L506.389 832.243L525.336 843.356L544.785 854.763L499.279 888.357Z" fill="#474A58"/>
<path d="M557.157 759.999C532.675 745.64 501.189 753.846 486.83 778.328C472.471 802.809 480.677 834.296 505.158 848.655L562.615 882.354L614.613 793.699L557.157 759.999Z" fill="#23252F"/>
<circle cx="17" cy="17" r="17" transform="matrix(-0.505921 0.86258 0.86258 0.505921 520.126 791.609)" fill="#474A58"/>
<ellipse cx="3.5" cy="3.5" rx="3.5" ry="3.5" transform="matrix(-0.505921 0.86258 0.86258 0.505921 521.889 816.988)" fill="#373840"/>
<path d="M495.491 92.6104L546.62 68.4188L547.444 90.369L548.29 112.901L495.491 92.6104Z" fill="#474A58"/>
<path d="M634.829 72.3535C633.765 43.9918 609.91 21.8631 581.548 22.9278C553.186 23.9926 531.058 47.8475 532.122 76.2091L534.621 142.773L637.328 138.917L634.829 72.3535Z" fill="#23252F"/>
<circle cx="17" cy="17" r="17" transform="matrix(-0.999296 0.037514 0.037514 0.999296 588.264 58.1409)" fill="#474A58"/>
<ellipse cx="3.5" cy="3.5" rx="3.5" ry="3.5" transform="matrix(-0.999296 0.037514 0.037514 0.999296 567.817 73.2789)" fill="#373840"/>
<path d="M672 404.405L620 382.149L620 404.114L620 426.662L672 404.405Z" fill="#474A58"/>
<path d="M532 389.39C532 361.008 555.008 338 583.39 338C611.771 338 634.779 361.008 634.779 389.39L634.779 456L532 456L532 389.39Z" fill="#23252F"/>
<circle cx="595" cy="390.44" r="17" fill="#474A58"/>
<ellipse cx="602.5" cy="391.301" rx="3.5" ry="3.5" fill="#373840"/>
<path d="M341.948 548.844L315.396 498.901L337.284 497.053L359.751 495.156L341.948 548.844Z" fill="#474A58"/>
<path d="M315.208 410.604C286.927 412.992 265.936 437.854 268.324 466.135C270.712 494.416 295.574 515.407 323.855 513.019L390.229 507.415L381.582 405L315.208 410.604Z" fill="#23252F"/>
<circle cx="17" cy="17" r="17" transform="matrix(0.0841295 0.996455 0.996455 -0.0841295 303.185 457.783)" fill="#474A58"/>
<ellipse cx="3.5" cy="3.5" rx="3.5" ry="3.5" transform="matrix(0.0841295 0.996455 0.996455 -0.0841295 319.261 477.5)" fill="#373840"/>
<path d="M202.061 312.608L146.097 320.82L157.581 339.545L169.368 358.766L202.061 312.608Z" fill="#474A58"/>
<path d="M74.8661 372.998C60.0284 348.804 67.6135 317.162 91.8077 302.325C116.002 287.487 147.644 295.072 162.481 319.266L197.305 376.049L109.689 429.781L74.8661 372.998Z" fill="#23252F"/>
<circle cx="129.12" cy="340.958" r="17" transform="rotate(-31.5197 129.12 340.958)" fill="#474A58"/>
<ellipse cx="135.963" cy="337.771" rx="3.5" ry="3.5" transform="rotate(-31.5197 135.963 337.771)" fill="#373840"/>
<path d="M316.329 632.803L280.259 676.373L301.326 682.592L322.951 688.977L316.329 632.803Z" fill="#474A58"/>
<path d="M262.287 762.822C235.066 754.785 219.515 726.204 227.551 698.984C235.587 671.764 264.169 656.212 291.389 664.248L355.273 683.109L326.171 781.682L262.287 762.822Z" fill="#23252F"/>
<circle cx="281.133" cy="702.697" r="17" transform="rotate(-73.5516 281.133 702.697)" fill="#474A58"/>
<ellipse cx="284.081" cy="695.748" rx="3.5" ry="3.5" transform="rotate(-73.5516 284.081 695.748)" fill="#373840"/>
<path d="M151.22 622.299L126.853 571.254L112.353 587.754L97.468 604.69L151.22 622.299Z" fill="#474A58"/>
<path d="M55.9722 518.601C74.7081 497.282 107.179 495.189 128.498 513.924C149.816 532.66 151.91 565.131 133.174 586.45L89.2018 636.484L12 568.635L55.9722 518.601Z" fill="#23252F"/>
<circle cx="102.6" cy="560.979" r="17" transform="rotate(41.3107 102.6 560.979)" fill="#474A58"/>
<ellipse cx="107.666" cy="566.576" rx="3.5" ry="3.5" transform="rotate(41.3107 107.666 566.576)" fill="#373840"/>
<path d="M64.1874 771.072L102.517 812.668L111.51 792.628L120.742 772.057L64.1874 771.072Z" fill="#474A58"/>
<path d="M185.768 842.091C174.148 867.985 143.737 879.556 117.843 867.936C91.949 856.316 80.3778 825.904 91.998 800.011L119.27 739.239L213.04 781.32L185.768 842.091Z" fill="#23252F"/>
<circle cx="128.72" cy="815.339" r="17" transform="rotate(-155.831 128.72 815.339)" fill="#474A58"/>
<ellipse cx="122.23" cy="811.483" rx="3.5" ry="3.5" transform="rotate(-155.831 122.23 811.483)" fill="#373840"/>
</g>
</pattern></defs>
</svg>
